<?xml version="1.0" encoding="UTF-8"?>
<svg id="Layer_1" data-name="Layer 1" xmlns="http://www.w3.org/2000/svg" viewBox="0 0 1000 1000">
  <defs>
    <style>
      .cls-1 {
        fill: #fff;
      }
    </style>
  </defs>
  <path class="cls-1" d="m500,35.7c62.69,0,123.49,12.27,180.72,36.48,55.29,23.38,104.94,56.86,147.59,99.51,42.65,42.65,76.13,92.3,99.51,147.59,24.2,57.23,36.48,118.03,36.48,180.72s-12.27,123.49-36.48,180.72c-23.38,55.29-56.86,104.94-99.51,147.59s-92.3,76.13-147.59,99.51c-57.23,24.2-118.03,36.48-180.72,36.48s-123.49-12.27-180.72-36.48c-55.29-23.38-104.94-56.86-147.59-99.51-42.65-42.65-76.13-92.3-99.51-147.59-24.2-57.23-36.48-118.03-36.48-180.72s12.27-123.49,36.48-180.72c23.38-55.29,56.86-104.94,99.51-147.59,42.65-42.65,92.3-76.13,147.59-99.51,57.23-24.2,118.03-36.48,180.72-36.48m0-23C230.87,12.7,12.7,230.87,12.7,500s218.17,487.3,487.3,487.3,487.3-218.17,487.3-487.3S769.13,12.7,500,12.7h0Z"/>
  <path class="cls-1" d="m444.79,754.45v-222.5h-80.75v-92.08h80.75c0-.63,0-1.15,0-1.68,0-23.43-.08-46.85.03-70.28.08-17.86,2.62-35.35,8.89-52.17,5.36-14.37,13.19-27.19,24.09-38.05,12.48-12.44,27.39-20.76,44.17-25.88,11.65-3.55,23.6-5.37,35.75-5.84,10.88-.42,21.76-.1,32.6.81,10.34.87,20.66,1.95,30.98,3.07,4.72.51,9.41,1.32,14.12,2.01.28.04.55.15.88.24v78.38h-1.49c-13.32,0-26.65-.04-39.97.02-8.85.04-17.47,1.39-25.57,5.13-11.84,5.46-19.14,14.76-22.66,27.17-1.54,5.4-2.23,10.93-2.23,16.54,0,19.62,0,39.24,0,58.86v1.6h88.3c-4.72,30.78-9.42,61.39-14.13,92.09h-74.17v222.55h-99.56Z"/>
</svg>