<?xml version="1.0" encoding="UTF-8"?>
<svg id="Layer_1" data-name="Layer 1" xmlns="http://www.w3.org/2000/svg" viewBox="0 0 1000 1000">
  <defs>
    <style>
      .cls-1 {
        fill: #fff;
      }
    </style>
  </defs>
  <path class="cls-1" d="m500,35.7c62.69,0,123.49,12.27,180.72,36.48,55.29,23.38,104.94,56.86,147.59,99.51,42.65,42.65,76.13,92.3,99.51,147.59,24.2,57.23,36.48,118.03,36.48,180.72s-12.27,123.49-36.48,180.72c-23.38,55.29-56.86,104.94-99.51,147.59s-92.3,76.13-147.59,99.51c-57.23,24.2-118.03,36.48-180.72,36.48s-123.49-12.27-180.72-36.48c-55.29-23.38-104.94-56.86-147.59-99.51-42.65-42.65-76.13-92.3-99.51-147.59-24.2-57.23-36.48-118.03-36.48-180.72s12.27-123.49,36.48-180.72c23.38-55.29,56.86-104.94,99.51-147.59,42.65-42.65,92.3-76.13,147.59-99.51,57.23-24.2,118.03-36.48,180.72-36.48m0-23C230.87,12.7,12.7,230.87,12.7,500s218.17,487.3,487.3,487.3,487.3-218.17,487.3-487.3S769.13,12.7,500,12.7h0Z"/>
  <g>
    <path class="cls-1" d="m253.21,542.83v-85.62c.25-.32.42-.67.41-1.08-.02-1.71.16-3.41.2-5.12.08-3.94.08-7.89.13-11.83.06-4.73.11-9.47.23-14.2.15-5.65.38-11.3.59-16.95.15-3.94.32-7.88.51-11.82.1-2.1.22-4.2.4-6.3.39-4.45.79-8.9,1.39-13.33.59-4.37,1.29-8.71,2.17-13.02,1.91-9.29,4.63-18.34,8.18-27.13,3.71-9.18,8.32-17.86,14.12-25.9,4.36-6.04,9.26-11.61,14.57-16.83,9.07-8.91,19.17-16.39,30.56-22.08,12.6-6.3,25.86-10.6,39.68-13.24,3.87-.74,7.77-1.33,11.68-1.86,1.43-.2,2.87-.35,4.31-.49,1.96-.19,3.93-.38,5.89-.53,2.95-.23,5.9-.47,8.85-.62,4.27-.22,8.54-.36,12.81-.54.33-.01.66-.04.98-.05,2.1-.08,4.2-.17,6.31-.25,1.51-.05,3.02-.09,4.53-.13,3.88-.09,7.75-.21,11.63-.26,7.36-.09,14.73-.13,22.09-.19.59,0,1.19.06,1.75-.21h85.62c.56.27,1.16.21,1.75.21,6.05.05,12.1.09,18.14.15,4.6.05,9.2.12,13.8.21,2.23.04,4.47.13,6.7.22,4.53.17,9.07.34,13.6.51.26,0,.52.03.79.05,1.71.08,3.41.15,5.12.25,2.82.16,5.65.3,8.46.51,2.1.15,4.19.38,6.28.61,2.68.29,5.36.55,8.03.94,4.16.61,8.3,1.33,12.41,2.2,9.79,2.08,19.29,5.08,28.51,9,8.99,3.82,17.44,8.59,25.25,14.47,7.33,5.52,13.96,11.78,20.02,18.66,6.11,6.93,11.37,14.46,15.7,22.63,4.94,9.33,8.7,19.13,11.52,29.29,1.74,6.27,3.05,12.64,4.05,19.07.77,4.94,1.36,9.9,1.78,14.87.36,4.26.6,8.52.81,12.79.24,4.79.38,9.59.56,14.39.02.39.02.79.05,1.18.21,3.22.23,6.44.25,9.66.06,8.22.12,16.43.17,24.65,0,.65-.03,1.31.24,1.93v96.27c-.15.63-.26,1.26-.25,1.92.03,1.05-.02,2.1-.02,3.15-.05,7.89-.1,15.78-.16,23.67-.01,1.91-.07,3.81-.13,5.72-.06,2.04-.15,4.07-.24,6.11-.17,4.14-.33,8.28-.52,12.41-.1,2.3-.2,4.6-.38,6.89-.37,4.78-.77,9.56-1.39,14.32-.62,4.76-1.39,9.49-2.35,14.19-1.93,9.49-4.75,18.71-8.41,27.67-3.72,9.1-8.36,17.7-14.15,25.66-4.22,5.81-8.95,11.18-14.06,16.22-8.95,8.84-18.92,16.27-30.16,21.97-12.56,6.37-25.8,10.75-39.61,13.42-2.77.54-5.56,1.01-8.35,1.45-2.27.35-4.56.62-6.84.89-1.83.21-3.66.37-5.49.53-2.55.22-5.11.47-7.66.62-3.81.22-7.62.35-11.43.52-.46.02-.92.04-1.38.06-5.12.21-10.24.46-15.37.61-5.39.16-10.78.24-16.17.34-4.4.08-8.81.15-13.21.22-.52,0-1.06-.04-1.52.29h-93.9c-.39-.32-.86-.28-1.32-.28-2.76-.05-5.52-.09-8.28-.14-5.98-.11-11.96-.21-17.95-.36-5.52-.14-11.04-.34-16.56-.51-.39-.01-.79-.05-1.18-.07-1.51-.07-3.02-.14-4.53-.21-3.48-.16-6.96-.31-10.44-.49-1.9-.1-3.8-.25-5.7-.43-1.96-.18-3.92-.39-5.88-.62-2.55-.29-5.1-.56-7.63-.94-4.03-.61-8.03-1.33-12.02-2.19-9.66-2.08-19.03-5.08-28.12-8.95-8.56-3.65-16.62-8.17-24.12-13.69-5.68-4.18-10.92-8.86-15.87-13.88-10.26-10.41-18.45-22.22-24.44-35.56-6.78-15.12-10.83-30.97-12.8-47.39-.38-3.13-.7-6.27-.94-9.42-.29-3.87-.59-7.73-.7-11.61-.02-.72-.06-1.45-.09-2.17-.19-4.2-.45-8.4-.57-12.61-.23-7.69-.52-15.38-.53-23.07,0-3.42-.06-6.84-.09-10.26-.01-1.12.02-2.24-.05-3.35-.1-1.64-.2-3.28-.21-4.92,0-.19-.06-.39-.14-.57-.05-.11-.17-.19-.26-.28Zm247.12,159.21s0-.03,0-.04c9.8,0,19.6.01,29.39,0,6.51,0,13.02-.06,19.53-.08,12.82-.04,25.64-.21,38.45-.78,5.71-.25,11.43-.46,17.14-.8,3.55-.21,7.08-.54,10.6-.95,3.85-.45,7.68-1.07,11.48-1.81,7.64-1.49,15.03-3.76,22.18-6.81,7.12-3.04,13.69-6.99,19.57-12.04,3.45-2.96,6.67-6.15,9.68-9.55,4.73-5.36,8.6-11.28,11.61-17.77,3.9-8.39,6.61-17.16,8.28-26.25.7-3.81,1.25-7.65,1.69-11.51.46-3.92.75-7.85.98-11.79.25-4.2.37-8.41.54-12.61.02-.46.04-.92.06-1.38.2-5.78.48-11.56.58-17.35.17-10.06.24-20.12.33-30.18.05-5.39.06-10.78.06-16.18,0-16.83.01-33.67-.03-50.5-.03-11.24-.16-22.49-.21-33.73-.03-8.15-.33-16.3-.54-24.45-.01-.46-.04-.92-.06-1.38-.2-4.27-.43-8.54-.59-12.81-.19-5.13-.59-10.24-1.15-15.34-.48-4.38-1.15-8.73-2.01-13.05-1.54-7.83-3.92-15.4-7.13-22.71-2.6-5.93-5.85-11.47-9.89-16.54-2.63-3.3-5.51-6.35-8.55-9.28-7.04-6.79-15.1-12-24.13-15.74-10.21-4.23-20.84-6.77-31.79-8.08-1.5-.18-3-.35-4.51-.5-2.22-.22-4.45-.46-6.68-.6-3.54-.21-7.09-.34-10.64-.5-.59-.03-1.18-.05-1.77-.07-4.8-.2-9.59-.45-14.39-.59-6.31-.18-12.62-.33-18.93-.37-12.36-.09-24.72-.14-37.09-.15-20.25-.01-40.51.03-60.76.02-12.89,0-25.77.18-38.66.46-1.25.03-2.5.09-3.75.14-1.77.07-3.55.13-5.32.2-4.2.17-8.41.33-12.61.52-2.17.1-4.34.18-6.5.37-3.4.3-6.81.56-10.2,1-3.39.44-6.76.96-10.12,1.58-7.13,1.33-14.05,3.35-20.78,6.04-6.81,2.72-13.21,6.17-19,10.7-4.46,3.5-8.53,7.42-12.29,11.66-4.74,5.35-8.63,11.26-11.66,17.74-3.55,7.6-6.13,15.51-7.84,23.72-.68,3.28-1.24,6.59-1.7,9.91-.42,3.06-.77,6.13-1.03,9.21-.25,2.95-.47,5.9-.56,8.86-.1,3.02-.27,6.04-.39,9.06-.2,4.93-.45,9.85-.57,14.78-.17,6.9-.31,13.81-.36,20.71-.09,10.78-.12,21.57-.13,32.35-.02,18.87,0,37.74.01,56.62.01,10.13.06,20.25.23,30.38.13,7.69.34,15.38.59,23.07.02.59.04,1.18.07,1.77.21,4.27.43,8.54.61,12.81.17,4.01.51,8.01.95,11.99.44,4.05,1.05,8.08,1.8,12.09,1.48,7.91,3.78,15.57,6.92,22.98,2.84,6.7,6.47,12.92,11.12,18.54,3.32,4.01,6.96,7.71,10.87,11.14,5.43,4.75,11.45,8.59,18,11.6,10.66,4.9,21.88,7.78,33.48,9.28,2.74.35,5.48.66,8.23.89,3.87.32,7.73.61,11.61.72.59.02,1.18.04,1.77.07,4.33.2,8.67.44,13,.58,5.91.19,11.83.38,17.75.44,13.35.13,26.69.2,40.04.25,8.35.04,16.7,0,25.05,0Z"/>
    <path class="cls-1" d="m373.67,499.85c.09-70.04,56.84-126.91,127.25-126.57,70.82.34,126.5,58.21,126,127.18-.12,69.69-57.23,126.55-127.49,126.08-68.64-.45-125.68-56.16-125.75-126.69Zm208.86.17c-.1-46.25-37.54-82.15-81.9-82.31-45-.16-82.3,36.18-82.48,81.89-.18,45.43,36.54,82.43,82.06,82.49,45.06.07,82.13-36.28,82.32-82.08Z"/>
    <path class="cls-1" d="m632.04,338.7c16.11-.09,29.56,13.16,29.53,29.65-.03,15.84-12.83,29.56-29.7,29.51-17.1-.05-29.69-14.12-29.53-29.87.16-16.18,13.47-29.45,29.69-29.29Z"/>
  </g>
</svg>