<?xml version="1.0" encoding="UTF-8"?>
<svg id="Layer_1" data-name="Layer 1" xmlns="http://www.w3.org/2000/svg" viewBox="0 0 1000 1000">
  <path d="m500,35.7c62.69,0,123.49,12.27,180.72,36.48,55.29,23.38,104.94,56.86,147.59,99.51,42.65,42.65,76.13,92.3,99.51,147.59,24.2,57.23,36.48,118.03,36.48,180.72s-12.27,123.49-36.48,180.72c-23.38,55.29-56.86,104.94-99.51,147.59s-92.3,76.13-147.59,99.51c-57.23,24.2-118.03,36.48-180.72,36.48s-123.49-12.27-180.72-36.48c-55.29-23.38-104.94-56.86-147.59-99.51-42.65-42.65-76.13-92.3-99.51-147.59-24.2-57.23-36.48-118.03-36.48-180.72s12.27-123.49,36.48-180.72c23.38-55.29,56.86-104.94,99.51-147.59,42.65-42.65,92.3-76.13,147.59-99.51,57.23-24.2,118.03-36.48,180.72-36.48m0-23C230.87,12.7,12.7,230.87,12.7,500s218.17,487.3,487.3,487.3,487.3-218.17,487.3-487.3S769.13,12.7,500,12.7h0Z"/>
  <g>
    <path d="m544.73,471.46l-18.1-26.24-118.5-171.8h-128.87l175.28,256.44,18.07,26.44,116.43,170.35h131.71l-176.02-255.18Zm-52.85,62.17l-18.05-26.41-140.19-205.09h59.42l114.31,165.72,18.11,26.26,140.6,203.84h-61.9l-112.31-164.31Z"/>
    <g>
      <polygon points="473.82 507.21 491.87 533.62 472.6 556.29 327.77 726.63 286.9 726.63 454.54 529.85 473.82 507.21"/>
      <polygon points="713.11 273.41 544.73 471.46 525.48 494.09 507.37 467.83 526.63 445.22 672.99 273.41 713.11 273.41"/>
    </g>
  </g>
</svg>